<svg width="22" height="22" viewBox="0 0 22 22" xmlns="http://www.w3.org/2000/svg">
    <path d="M17.266 5a.346.346 0 0 1 .3.52L15.9 8.403C18.76 9.957 20.714 12.85 21 16.269H1c.286-3.419 2.24-6.312 5.099-7.866L4.434 5.519a.346.346 0 1 1 .6-.346l1.685 2.92A10.28 10.28 0 0 1 11 7.176c1.545 0 2.993.327 4.282.915l1.685-2.919a.346.346 0 0 1 .3-.173zm-1.664 6.753a.833.833 0 1 0 0 1.666.833.833 0 0 0 0-1.666zm-9.205 0a.833.833 0 1 0 0 1.666.833.833 0 0 0 0-1.666z" fill="#000" fill-rule="nonzero" fill-opacity=".2"/>
</svg>
