<svg xmlns="http://www.w3.org/2000/svg" width="22" height="22" viewBox="0 0 22 22">
    <g fill="none" fill-opacity=".2" fill-rule="evenodd">
        <g fill="#000" fill-rule="nonzero">
            <g>
                <g>
                    <g>
                        <path d="M13.64 3.003c-.045-.007-.097-.002-.154.016-.753.15-1.58.603-2.107 1.13-.451.451-.827 1.204-.827 1.881 0 .151.149.302.3.302.828-.075 1.656-.527 2.183-1.054.452-.603.828-1.28.828-1.957 0-.17-.085-.297-.222-.318zm.223 3.254c-1.355 0-1.957.828-2.86.828-.979 0-1.882-.753-3.011-.753-1.581 0-3.99 1.505-3.99 4.968-.076 3.162 2.785 6.7 4.441 6.7.979 0 1.205-.603 2.56-.603s1.656.603 2.635.603c1.129 0 1.957-1.205 2.634-2.183.301-.527.527-.828.753-1.28.15-.3 0-.602-.301-.752-1.957-.979-2.333-4.14-.15-5.27.376-.226.45-.678.15-.904-.828-.753-2.033-1.354-2.861-1.354z" transform="translate(-256.000000, -750.000000) translate(0.000000, 698.000000) translate(16.000000, 52.000000) translate(240.000000, 0.000000)"/>
                    </g>
                </g>
            </g>
        </g>
    </g>
</svg>
