<svg xmlns="http://www.w3.org/2000/svg" width="16" height="16" viewBox="0 0 16 16">
    <g fill="none" fill-opacity=".45" fill-rule="evenodd">
        <g fill="#000">
            <g>
                <g>
                    <path d="M8 2c1.308 0 2.458.619 3.201 1.565l-.847.556C9.796 3.443 8.954 3 8 3 6.32 3 4.954 4.346 4.954 6c0 1.302.852 2.401 2.03 2.815v1.294C5 10.509 3.431 12.045 3.027 14H2c.366-2.121 1.868-3.867 3.865-4.61C4.713 8.684 3.938 7.436 3.938 6c0-2.209 1.819-4 4.062-4zm1.015 7.095c.386.066.76.162 1.12.295 1.997.743 3.499 2.49 3.865 4.61h-1.026c-.406-1.955-1.974-3.49-3.96-3.89zM11.045 5c1.178 0 2.032.631 2.032 1.5S12.223 8 11.046 8H8V7h3.046c.558 0 1.015-.225 1.015-.5s-.457-.5-1.015-.5z" transform="translate(-150.000000, -552.000000) translate(16.000000, 540.000000) translate(134.000000, 9.000000) translate(0.000000, 3.000000)"/>
                </g>
            </g>
        </g>
    </g>
</svg>
